<svg xmlns="http://www.w3.org/2000/svg" xmlns:xlink="http://www.w3.org/1999/xlink" width="125.797" height="65.044" viewBox="0 0 125.797 65.044">
  <defs>
    <clipPath id="clip-path">
      <rect id="矩形_8" data-name="矩形 8" width="125.797" height="65.044" transform="translate(0 0)" fill="none"/>
    </clipPath>
  </defs>
  <g id="组_4" data-name="组 4" transform="translate(0 0)">
    <g id="组_3" data-name="组 3" clip-path="url(#clip-path)">
      <path id="路径_16" data-name="路径 16" d="M8.634,31.306c.012-.027.023-.054.034-.081s.029-.073.042-.111a6.25,6.25,0,0,0,.2-2.353c-.013-.31-.025-.6-.019-.889a.233.233,0,0,0-.391-.189.23.23,0,0,0-.073.166c-.007.3.006.621.019.937a5.919,5.919,0,0,1-.17,2.173l-.036.1c-.011.026-.021.051-.038.089a6.411,6.411,0,0,1-.789,1.1.236.236,0,0,0,.158.386H7.59a.229.229,0,0,0,.17-.075,4.513,4.513,0,0,0,.866-1.232Z" fill="#fff"/>
      <path id="路径_17" data-name="路径 17" d="M16.727,28.3l0-.018c-.254-.888-.772-1.966-1.8-2.056a.231.231,0,0,0-.2.38.228.228,0,0,0,.157.082c.8.071,1.215,1.1,1.389,1.71a8.745,8.745,0,0,1-1.1,6.309,8.294,8.294,0,0,1-1.12,1.486.23.23,0,0,0,.154.391h.015a.234.234,0,0,0,.167-.071,8.8,8.8,0,0,0,1.183-1.57A9.2,9.2,0,0,0,16.727,28.3m-.057.011Z" fill="#fff"/>
      <path id="路径_18" data-name="路径 18" d="M14.377,26.73a.232.232,0,0,0-.077-.458c-1.026.173-1.477,1.147-1.27,2.743q.023.171.045.333l.008.058a5.043,5.043,0,0,1-.073,2.563.236.236,0,0,0,.009.177.234.234,0,0,0,.21.134.232.232,0,0,0,.218-.154,5.477,5.477,0,0,0,.1-2.784l0-.03c-.016-.116-.033-.235-.048-.356-.1-.759-.115-2.058.886-2.226" fill="#fff"/>
      <path id="路径_19" data-name="路径 19" d="M17.175,26.047a.233.233,0,0,0-.22.369,5.213,5.213,0,0,1,.986,3.629.232.232,0,0,0,.209.253h.023a.23.23,0,0,0,.23-.21,5.681,5.681,0,0,0-1.076-3.951.227.227,0,0,0-.152-.091" fill="#fff"/>
      <path id="路径_20" data-name="路径 20" d="M19.63,28.489a.228.228,0,0,0,.045,0,.232.232,0,0,0,.183-.273,8.388,8.388,0,0,0-1.073-2.761.234.234,0,0,0-.32-.078.231.231,0,0,0-.1.144.228.228,0,0,0,.027.175A7.919,7.919,0,0,1,19.4,28.3a.232.232,0,0,0,.227.187" fill="#fff"/>
      <path id="路径_21" data-name="路径 21" d="M16.249,23.464a4.973,4.973,0,0,0-3.9.246,4.409,4.409,0,0,0-2.22,2.727.232.232,0,0,0,.158.287.238.238,0,0,0,.065.01.233.233,0,0,0,.223-.168,3.893,3.893,0,0,1,1.987-2.443A4.5,4.5,0,0,1,16.1,23.9a4.3,4.3,0,0,1,1.809,1.218.231.231,0,0,0,.327.021.227.227,0,0,0,.079-.159.23.23,0,0,0-.057-.168,4.756,4.756,0,0,0-2-1.35" fill="#fff"/>
      <path id="路径_22" data-name="路径 22" d="M10.041,30.655a.232.232,0,0,0,.162.074h.008a.231.231,0,0,0,.232-.224c.017-.478-.009-.967-.034-1.442a11.579,11.579,0,0,1,0-1.89.232.232,0,0,0-.462-.051,12.074,12.074,0,0,0,0,1.967c.025.462.051.94.034,1.4a.233.233,0,0,0,.062.167" fill="#fff"/>
      <path id="路径_23" data-name="路径 23" d="M10.3,31.123a.235.235,0,0,0-.174-.091.241.241,0,0,0-.239.194,3.813,3.813,0,0,1-1.554,2.16.225.225,0,0,0-.087.161.233.233,0,0,0,.231.253.229.229,0,0,0,.142-.049,4.293,4.293,0,0,0,1.724-2.438.232.232,0,0,0-.043-.19" fill="#fff"/>
      <path id="路径_24" data-name="路径 24" d="M20.78,26.994h0a.232.232,0,0,0-.18.275,14.47,14.47,0,0,1-.041,6.509.229.229,0,0,0,.11.259.229.229,0,0,0,.283-.045.229.229,0,0,0,.06-.106,14.934,14.934,0,0,0,.042-6.712.232.232,0,0,0-.274-.18" fill="#fff"/>
      <path id="路径_25" data-name="路径 25" d="M20.7,26.768a.232.232,0,0,0,.147-.293,6.7,6.7,0,0,0-5.936-4.708h-.007a.232.232,0,0,0-.012.464,6.239,6.239,0,0,1,5.515,4.39.231.231,0,0,0,.22.159.228.228,0,0,0,.073-.012" fill="#fff"/>
      <path id="路径_26" data-name="路径 26" d="M14.118,22.242h.1a.232.232,0,0,0,.005-.464h-.1c-2.98,0-5.369,2.809-5.649,5.33a.232.232,0,0,0,.2.256H8.7a.231.231,0,0,0,.23-.206c.261-2.346,2.447-4.917,5.192-4.917" fill="#fff"/>
      <path id="路径_27" data-name="路径 27" d="M23.031,28.534A9.091,9.091,0,0,0,18.793,21.2a.233.233,0,0,0-.336.114.241.241,0,0,0,.106.289,8.637,8.637,0,0,1,4.005,6.971c.036.444.033,1.224.031,1.793a.227.227,0,0,0,.2.23.236.236,0,0,0,.037,0,.227.227,0,0,0,.22-.173.235.235,0,0,0,.01-.06,15.06,15.06,0,0,0-.032-1.83" fill="#fff"/>
      <path id="路径_28" data-name="路径 28" d="M8.1,24.267a7.318,7.318,0,0,1,5.178-3.643,7.571,7.571,0,0,1,4.623.618.233.233,0,0,0,.195,0,.229.229,0,0,0,.128-.147.238.238,0,0,0-.131-.278,8.049,8.049,0,0,0-4.9-.652,7.793,7.793,0,0,0-5.5,3.884A8.481,8.481,0,0,0,6.9,28.029a6.771,6.771,0,0,1-.369,2.446.234.234,0,0,0-.006.163.225.225,0,0,0,.208.155h.009a.229.229,0,0,0,.213-.142,7.177,7.177,0,0,0,.409-2.616A8.1,8.1,0,0,1,8.1,24.267" fill="#fff"/>
      <path id="路径_29" data-name="路径 29" d="M14.661,33.4h0l.005-.027a.22.22,0,0,0-.07-.189l-.022-.018-.024-.015-.066-.026-.02,0-.011.057,0-.059h-.022l-.019,0a.217.217,0,0,0-.146.081.371.371,0,0,0-.051.081l-.026.064.008,0A5.008,5.008,0,0,1,12.4,35.489c-.142.114-.265.213-.367.3a.254.254,0,0,0-.085.238.213.213,0,0,0,.15.16.257.257,0,0,0,.072.011.2.2,0,0,0,.127-.042l.219-.168a5.622,5.622,0,0,0,2.132-2.567.1.1,0,0,0,.01-.027m-.15-.2Zm-.019-.008Z" fill="#fff"/>
      <path id="路径_30" data-name="路径 30" d="M13.191,32.846a.232.232,0,0,0-.2-.293.239.239,0,0,0-.25.18,4.526,4.526,0,0,1-2.03,2.342l-.114.082a.23.23,0,0,0,.026.391.226.226,0,0,0,.11.029.241.241,0,0,0,.136-.043l.112-.081a4.96,4.96,0,0,0,2.211-2.607" fill="#fff"/>
      <path id="路径_31" data-name="路径 31" d="M18.374,30.9a.236.236,0,0,0-.225-.235h0a.245.245,0,0,0-.173.07.219.219,0,0,0-.064.156,8.7,8.7,0,0,1-1.725,4.985c-.034.049-.066.1-.1.15-.02.033-.041.067-.062.1a.23.23,0,0,0,.191.357.325.325,0,0,0,.044,0,.236.236,0,0,0,.155-.1l.06-.1a1.794,1.794,0,0,1,.1-.152,9.585,9.585,0,0,0,1.8-5.228" fill="#fff"/>
      <path id="路径_32" data-name="路径 32" d="M11.883,31.736a6.277,6.277,0,0,0,.042-1.659c-.011-.179-.022-.364-.028-.542s-.014-.338-.022-.512a4.3,4.3,0,0,1,.735-3.191,2.372,2.372,0,0,1,1.661-.769,3.07,3.07,0,0,1,2.192.81.232.232,0,0,0,.388-.184.228.228,0,0,0-.076-.16,3.2,3.2,0,0,0-4.489-.029,4.672,4.672,0,0,0-.875,3.546v.021c.008.163.016.325.021.482.006.188.018.378.03.563a5.925,5.925,0,0,1-.035,1.531A4.21,4.21,0,0,1,10.27,33.7a6.613,6.613,0,0,1-.839.7.232.232,0,0,0,.139.418.237.237,0,0,0,.136-.044,7.2,7.2,0,0,0,.9-.753,4.675,4.675,0,0,0,1.28-2.287" fill="#fff"/>
      <path id="路径_33" data-name="路径 33" d="M19.869,28.792a.23.23,0,0,0-.2-.025.239.239,0,0,0-.154.25,13.63,13.63,0,0,1-1.259,6.393.234.234,0,0,0,.05.267.23.23,0,0,0,.163.067.255.255,0,0,0,.111-.027.245.245,0,0,0,.109-.109,13.237,13.237,0,0,0,1.288-6.638.233.233,0,0,0-.1-.178" fill="#fff"/>
      <path id="路径_34" data-name="路径 34" d="M14.628,32.883a.237.237,0,0,0,.069.011.218.218,0,0,0,.1-.025.228.228,0,0,0,.119-.139,6.623,6.623,0,0,0,.008-4.518.232.232,0,1,0-.433.168,6.476,6.476,0,0,1-.019,4.215.235.235,0,0,0,.153.288" fill="#fff"/>
      <path id="路径_35" data-name="路径 35" d="M68.518,17.42a.511.511,0,0,1-.512-.512V13.514a.512.512,0,1,1,1.023,0v3.394a.511.511,0,0,1-.511.512" fill="#fff"/>
      <path id="路径_36" data-name="路径 36" d="M62.6,18.62a.51.51,0,0,1-.47-.309L60.8,15.26a.512.512,0,1,1,.94-.408L63.065,17.9a.514.514,0,0,1-.47.717" fill="#fff"/>
      <path id="路径_37" data-name="路径 37" d="M57.229,21.453a.511.511,0,0,1-.4-.187L54.91,18.928a.512.512,0,1,1,.792-.65l1.922,2.337a.513.513,0,0,1-.4.838" fill="#fff"/>
      <path id="路径_38" data-name="路径 38" d="M75.244,18.775a.514.514,0,0,1-.47-.717L76.1,15.007a.512.512,0,1,1,.94.408l-1.325,3.051a.51.51,0,0,1-.47.309" fill="#fff"/>
      <path id="路径_39" data-name="路径 39" d="M80.514,21.97a.513.513,0,0,1-.395-.838L82.041,18.8a.513.513,0,1,1,.792.651L80.91,21.783a.511.511,0,0,1-.4.187" fill="#fff"/>
      <path id="路径_40" data-name="路径 40" d="M68.493,33.722A6.919,6.919,0,1,1,75.412,26.8a6.927,6.927,0,0,1-6.919,6.919m0-12.833A5.914,5.914,0,1,0,74.407,26.8a5.921,5.921,0,0,0-5.914-5.914" fill="#fff"/>
      <path id="路径_41" data-name="路径 41" d="M68.529,30.288A3.484,3.484,0,1,1,72.014,26.8a3.488,3.488,0,0,1-3.485,3.485m0-5.964a2.48,2.48,0,1,0,2.48,2.479,2.482,2.482,0,0,0-2.48-2.479" fill="#fff"/>
      <path id="路径_42" data-name="路径 42" d="M68.518,37.188a14.556,14.556,0,0,1-1.573-.093,16.574,16.574,0,0,1-2.356-.428c-.358-.092-.743-.207-1.175-.35-7.247-2.407-12.452-8.931-12.67-9.208a.511.511,0,0,1,0-.634,33.316,33.316,0,0,1,5.174-5.028c2.932-2.3,7.5-5.052,12.6-5.052s9.668,2.748,12.6,5.052a33.371,33.371,0,0,1,5.174,5.028.512.512,0,0,1,0,.634c-.224.284-5.567,6.985-12.967,9.305-.334.1-.612.185-.878.253a16.863,16.863,0,0,1-1.717.348,14.706,14.706,0,0,1-2.211.173m-16.706-10.4c1.14,1.337,5.861,6.54,11.925,8.553.41.136.772.244,1.109.331a15.507,15.507,0,0,0,2.21.4,13.532,13.532,0,0,0,1.462.087A13.749,13.749,0,0,0,70.577,36a15.749,15.749,0,0,0,1.613-.326c.279-.072.554-.153.828-.239,6.2-1.944,11.048-7.287,12.205-8.645a34.033,34.033,0,0,0-4.758-4.553c-2.8-2.2-7.146-4.818-11.947-4.818s-9.162,2.628-11.967,4.833a34.007,34.007,0,0,0-4.739,4.538" fill="#fff"/>
      <path id="路径_43" data-name="路径 43" d="M68.529,36.164a9.514,9.514,0,0,1-1.316-.094,9.307,9.307,0,1,1,1.316.094m0-17.715A8.355,8.355,0,1,0,76.884,26.8a8.364,8.364,0,0,0-8.355-8.355" fill="#fff"/>
      <path id="路径_44" data-name="路径 44" d="M96.581,51.486H39.062a3.484,3.484,0,0,1-3.48-3.48V3.48A3.484,3.484,0,0,1,39.062,0H96.581a3.484,3.484,0,0,1,3.48,3.48V48.006a3.484,3.484,0,0,1-3.48,3.48M39.062,2.821a.66.66,0,0,0-.659.659V48.006a.659.659,0,0,0,.659.659H96.581a.66.66,0,0,0,.659-.659V3.48a.66.66,0,0,0-.659-.659Z" fill="#fff"/>
      <path id="路径_45" data-name="路径 45" d="M93.787,46.8H41.855a1.411,1.411,0,0,1-1.411-1.411V6.1a1.41,1.41,0,0,1,1.411-1.41H93.787A1.41,1.41,0,0,1,95.2,6.1V45.388A1.411,1.411,0,0,1,93.787,46.8M43.265,43.978H92.376V7.508H43.265Z" fill="#fff"/>
      <path id="路径_46" data-name="路径 46" d="M74.238,59.46H61.4a1.41,1.41,0,0,1-1.411-1.41V50.076A1.411,1.411,0,0,1,61.4,48.665H74.238a1.411,1.411,0,0,1,1.41,1.411V58.05a1.41,1.41,0,0,1-1.41,1.41M62.815,56.639H72.827V51.486H62.815Z" fill="#fff"/>
      <path id="路径_47" data-name="路径 47" d="M81.654,65.044H53.988a1.41,1.41,0,0,1-1.41-1.41,7,7,0,0,1,6.994-6.995h16.5a7,7,0,0,1,6.994,6.995,1.41,1.41,0,0,1-1.41,1.41m-26.01-2.821H80A4.18,4.18,0,0,0,76.07,59.46h-16.5a4.181,4.181,0,0,0-3.928,2.763" fill="#fff"/>
      <path id="路径_48" data-name="路径 48" d="M27.8,51.911H1.411A1.41,1.41,0,0,1,0,50.5V10.465A1.411,1.411,0,0,1,1.411,9.054H27.8a1.411,1.411,0,0,1,1.411,1.411V50.5a1.41,1.41,0,0,1-1.411,1.41M2.821,49.09h23.57V11.875H2.821Z" fill="#fff"/>
      <path id="路径_49" data-name="路径 49" d="M27.8,11.876H1.411A1.41,1.41,0,0,1,0,10.466V6.741A4.741,4.741,0,0,1,4.736,2.005h19.74a4.741,4.741,0,0,1,4.736,4.736v3.725a1.41,1.41,0,0,1-1.411,1.41M2.821,9.055h23.57V6.741a1.917,1.917,0,0,0-1.915-1.915H4.736A1.917,1.917,0,0,0,2.821,6.741Z" fill="#fff"/>
      <path id="路径_50" data-name="路径 50" d="M24.476,58.793H4.736A4.741,4.741,0,0,1,0,54.057V50.5a1.41,1.41,0,0,1,1.411-1.41H27.8a1.41,1.41,0,0,1,1.411,1.41v3.556a4.741,4.741,0,0,1-4.736,4.736M2.821,51.912v2.145a1.917,1.917,0,0,0,1.915,1.915h19.74a1.917,1.917,0,0,0,1.915-1.915V51.912Z" fill="#fff"/>
      <rect id="矩形_4" data-name="矩形 4" width="16.552" height="10.084" transform="translate(107.085 7.964)" fill="none" stroke="#fff" stroke-miterlimit="10" stroke-width="2.045"/>
      <rect id="矩形_5" data-name="矩形 5" width="3.081" height="2.333" transform="translate(109.599 10.297)" fill="none" stroke="#fff" stroke-miterlimit="10" stroke-width="0.928"/>
      <rect id="矩形_6" data-name="矩形 6" width="3.081" height="2.333" transform="translate(118.157 10.297)" fill="none" stroke="#fff" stroke-miterlimit="10" stroke-width="0.928"/>
      <path id="路径_51" data-name="路径 51" d="M106.26,17.668v35.3c0,3.308,2.089,5.99,4.665,5.99h9.185c2.576,0,4.664-2.682,4.664-5.99v-35.3Z" fill="none" stroke="#fff" stroke-miterlimit="10" stroke-width="2.045"/>
      <path id="矩形_7" data-name="矩形 7" d="M3.906,0h5.8a3.907,3.907,0,0,1,3.907,3.907V14.746a3.906,3.906,0,0,1-3.906,3.906H3.906A3.906,3.906,0,0,1,0,14.746V3.906A3.906,3.906,0,0,1,3.906,0Z" transform="translate(108.993 35.274)" fill="none" stroke="#fff" stroke-miterlimit="10" stroke-width="0.722"/>
      <path id="路径_52" data-name="路径 52" d="M120.371,46.732a.418.418,0,0,1-.418-.418c0-.3.008-.608.015-.912l.007-.272a.418.418,0,1,1,.836.02l-.007.273c-.007.3-.015.594-.015.891a.418.418,0,0,1-.418.418" fill="#fff"/>
      <path id="路径_53" data-name="路径 53" d="M110.224,44.042a.475.475,0,0,1-.1-.011.419.419,0,0,1-.309-.5c.628-2.626,2.441-5.432,5.643-5.432,2.822,0,4.956,2.2,5.31,5.479a.418.418,0,0,1-.831.09c-.311-2.875-2.069-4.733-4.479-4.733-3.418,0-4.561,3.666-4.83,4.79a.418.418,0,0,1-.406.321" fill="#fff"/>
      <path id="路径_54" data-name="路径 54" d="M110.48,46.3a.418.418,0,0,1-.279-.73,3.424,3.424,0,0,0,.572-.665.418.418,0,0,1,.7.464,4.262,4.262,0,0,1-.71.824.416.416,0,0,1-.279.107" fill="#fff"/>
      <path id="路径_55" data-name="路径 55" d="M111.844,44.038a.4.4,0,0,1-.144-.026.417.417,0,0,1-.248-.536c.05-.139.1-.277.149-.417.13-.364.264-.742.425-1.11a3.979,3.979,0,0,1,3.4-2.428.418.418,0,1,1,.039.835,3.139,3.139,0,0,0-2.67,1.927c-.15.342-.279.7-.4,1.057-.05.142-.1.283-.153.424a.418.418,0,0,1-.392.274" fill="#fff"/>
      <path id="路径_56" data-name="路径 56" d="M119.068,44.042a.417.417,0,0,1-.412-.352,4.4,4.4,0,0,0-1.293-2.743.418.418,0,1,1,.54-.638,5.182,5.182,0,0,1,1.578,3.248.419.419,0,0,1-.346.48.5.5,0,0,1-.067.005" fill="#fff"/>
      <path id="路径_57" data-name="路径 57" d="M120,48.554a.418.418,0,0,1-.392-.273,15.82,15.82,0,0,1-.727-3.078.418.418,0,0,1,.827-.126,14.8,14.8,0,0,0,.684,2.914.418.418,0,0,1-.247.537.411.411,0,0,1-.145.026" fill="#fff"/>
      <path id="路径_58" data-name="路径 58" d="M114.417,52.542a.418.418,0,0,1-.381-.245,13.682,13.682,0,0,1-1.445-6.754.411.411,0,0,1,.449-.385.42.42,0,0,1,.385.45,12.9,12.9,0,0,0,1.372,6.343.417.417,0,0,1-.207.553.41.41,0,0,1-.173.038" fill="#fff"/>
      <path id="路径_59" data-name="路径 59" d="M117.683,44.042a.418.418,0,0,1-.4-.3c-.547-1.81-1.331-1.891-1.873-1.795-.665.118-1.26.752-1.722,1.835a.418.418,0,0,1-.769-.328c.586-1.374,1.375-2.158,2.344-2.331.911-.162,2.139.12,2.82,2.378a.417.417,0,0,1-.279.521.422.422,0,0,1-.121.018" fill="#fff"/>
      <path id="路径_60" data-name="路径 60" d="M119.371,49.972a.418.418,0,0,1-.354-.195,11.157,11.157,0,0,1-1.313-4.091l-.086-.469a.418.418,0,0,1,.822-.154l.087.472a10.539,10.539,0,0,0,1.2,3.8.419.419,0,0,1-.353.642" fill="#fff"/>
      <path id="路径_61" data-name="路径 61" d="M112.638,51.55a.419.419,0,0,1-.4-.289c-.749-2.308-.82-3.137-.661-4.1a2.092,2.092,0,0,1-1.063.393.418.418,0,0,1-.073-.833,1.38,1.38,0,0,0,1.07-.7.594.594,0,0,1,.382-.287.478.478,0,0,1,.475.181,1.945,1.945,0,0,1,.048,1.3h0c-.153.861-.1,1.579.617,3.792a.419.419,0,0,1-.269.527.444.444,0,0,1-.129.02" fill="#fff"/>
      <path id="路径_62" data-name="路径 62" d="M115.954,52.689a.418.418,0,0,1-.4-.287c-.159-.482-.358-.994-.568-1.536-.721-1.855-1.537-3.956-1.1-5.821a.418.418,0,1,1,.814.191c-.376,1.612.39,3.586,1.066,5.327.215.553.417,1.075.583,1.577a.417.417,0,0,1-.266.528.422.422,0,0,1-.131.021" fill="#fff"/>
      <path id="路径_63" data-name="路径 63" d="M116.279,44.042a.417.417,0,0,1-.374-.231c-.012-.024-.024-.047-.037-.07a.381.381,0,0,0-.328-.039c-.058.061-.114.122-.166.185a.418.418,0,1,1-.643-.535c.085-.1.178-.2.276-.3a.383.383,0,0,1,.108-.078,1.213,1.213,0,0,1,1.381.207.391.391,0,0,1,.072.1c.029.053.057.107.084.161a.418.418,0,0,1-.187.561.413.413,0,0,1-.186.044" fill="#fff"/>
      <path id="路径_64" data-name="路径 64" d="M117.43,48.808a.418.418,0,0,1-.381-.245l-.03-.065a1.992,1.992,0,0,1-.2-.584,13,13,0,0,1-.286-1.607c-.048-.359-.1-.729-.169-1.087a.418.418,0,0,1,.821-.161c.075.382.127.765.177,1.136a11.966,11.966,0,0,0,.275,1.541.406.406,0,0,1,.015.11c.009.039.091.215.131.3l.032.07a.418.418,0,0,1-.207.554.41.41,0,0,1-.173.038" fill="#fff"/>
      <path id="路径_65" data-name="路径 65" d="M118.84,51.986a.418.418,0,0,1-.369-.219c-.293-.542-.57-1.107-.823-1.679a.418.418,0,1,1,.765-.338c.244.552.511,1.1.793,1.619a.417.417,0,0,1-.366.617" fill="#fff"/>
      <path id="路径_66" data-name="路径 66" d="M116.13,48.474l-.049,0a.418.418,0,0,1-.367-.463,6.44,6.44,0,0,0-.15-2.392l-.019-.069c-.02-.071-.048-.169-.083-.272a.418.418,0,1,1,.791-.271c.041.119.073.234.1.315l.016.055.008.028a7.271,7.271,0,0,1,.172,2.7.418.418,0,0,1-.415.37" fill="#fff"/>
      <path id="路径_67" data-name="路径 67" d="M117.529,52.689a.42.42,0,0,1-.386-.256l-.157-.377c-.22-.529-.553-1.328-.784-1.846-.106-.24-.22-.48-.333-.722a9.074,9.074,0,0,1-1.091-3.464,5.8,5.8,0,0,1,.043-.943.418.418,0,0,1,.828.119,5.125,5.125,0,0,0-.036.788,8.464,8.464,0,0,0,1.013,3.144c.116.247.231.492.341.738.234.527.569,1.332.791,1.864l.156.374a.418.418,0,0,1-.223.548.423.423,0,0,1-.162.033" fill="#fff"/>
      <path id="路径_68" data-name="路径 68" d="M121.47,44.042a.418.418,0,0,1-.418-.41,6.46,6.46,0,0,0-1.4-4.38.418.418,0,1,1,.627-.554,7.32,7.32,0,0,1,1.612,4.918.417.417,0,0,1-.41.426Z" fill="#fff"/>
      <path id="路径_69" data-name="路径 69" d="M109.869,41.761a.386.386,0,0,1-.106-.014.418.418,0,0,1-.3-.51,6.413,6.413,0,0,1,7.275-4.454,6.036,6.036,0,0,1,2.287.849.418.418,0,0,1-.446.708,5.193,5.193,0,0,0-1.973-.731,5.638,5.638,0,0,0-6.334,3.839.417.417,0,0,1-.4.313" fill="#fff"/>
      <path id="路径_70" data-name="路径 70" d="M111.188,51.113a.419.419,0,0,1-.412-.347,6.89,6.89,0,0,1-.08-1.8c.008-.091.019-.18.028-.264s.023-.2.029-.292a1.5,1.5,0,0,0-.143.07.418.418,0,0,1-.4-.735c.17-.093.687-.374,1.089-.087.357.256.306.7.256,1.138-.009.079-.018.161-.026.246a6.048,6.048,0,0,0,.072,1.58.419.419,0,0,1-.341.484.437.437,0,0,1-.072.006" fill="#fff"/>
    </g>
  </g>
</svg>
