<svg id="组_2" data-name="组 2" xmlns="http://www.w3.org/2000/svg" xmlns:xlink="http://www.w3.org/1999/xlink" width="83.133" height="72.512" viewBox="0 0 83.133 72.512">
  <defs>
    <clipPath id="clip-path">
      <rect id="矩形_3" data-name="矩形 3" width="83.133" height="72.512" transform="translate(0 0)" fill="none"/>
    </clipPath>
  </defs>
  <g id="组_1" data-name="组 1" clip-path="url(#clip-path)">
    <path id="路径_1" data-name="路径 1" d="M81.447,13.353H1.709A1.186,1.186,0,0,1,.522,12.167V1.686A1.186,1.186,0,0,1,1.709.5H81.447a1.186,1.186,0,0,1,1.186,1.186V12.167a1.186,1.186,0,0,1-1.186,1.186M2.895,10.98H80.26V2.872H2.895Z" fill="#fff"/>
    <path id="路径_2" data-name="路径 2" d="M81.447,13.353H1.709A1.186,1.186,0,0,1,.522,12.167V1.686A1.186,1.186,0,0,1,1.709.5H81.447a1.186,1.186,0,0,1,1.186,1.186V12.167A1.186,1.186,0,0,1,81.447,13.353ZM2.895,10.98H80.26V2.872H2.895Z" fill="none" stroke="#fff" stroke-miterlimit="10" stroke-width="1"/>
    <path id="路径_3" data-name="路径 3" d="M81.425,72.012H1.686A1.186,1.186,0,0,1,.5,70.826V12.167A1.186,1.186,0,0,1,1.686,10.98H81.425a1.186,1.186,0,0,1,1.186,1.187V70.826a1.186,1.186,0,0,1-1.186,1.186M2.873,69.639H80.239V13.353H2.873Z" fill="#fff"/>
    <path id="路径_4" data-name="路径 4" d="M81.425,72.012H1.686A1.186,1.186,0,0,1,.5,70.826V12.167A1.186,1.186,0,0,1,1.686,10.98H81.425a1.186,1.186,0,0,1,1.186,1.187V70.826A1.186,1.186,0,0,1,81.425,72.012ZM2.873,69.639H80.239V13.353H2.873Z" fill="none" stroke="#fff" stroke-miterlimit="10" stroke-width="1"/>
    <path id="路径_5" data-name="路径 5" d="M8.544,8.117a1.2,1.2,0,0,1-.838-.348,1.756,1.756,0,0,1-.151-.182.964.964,0,0,1-.1-.206,1.112,1.112,0,0,1-.071-.221,1.185,1.185,0,0,1,.324-1.076,1.239,1.239,0,0,1,1.676,0,1.194,1.194,0,0,1,0,1.685,1.186,1.186,0,0,1-.838.348" fill="#fff"/>
    <path id="路径_6" data-name="路径 6" d="M8.544,8.117a1.2,1.2,0,0,1-.838-.348,1.756,1.756,0,0,1-.151-.182.964.964,0,0,1-.1-.206,1.112,1.112,0,0,1-.071-.221,1.185,1.185,0,0,1,.324-1.076,1.239,1.239,0,0,1,1.676,0,1.194,1.194,0,0,1,0,1.685A1.186,1.186,0,0,1,8.544,8.117Z" fill="none" stroke="#fff" stroke-miterlimit="10" stroke-width="1"/>
    <path id="路径_7" data-name="路径 7" d="M14.942,6.93a1.191,1.191,0,1,1,1.194,1.186A1.2,1.2,0,0,1,14.942,6.93" fill="#fff"/>
    <path id="路径_8" data-name="路径 8" d="M14.942,6.93a1.191,1.191,0,1,1,1.194,1.186A1.2,1.2,0,0,1,14.942,6.93Z" fill="none" stroke="#fff" stroke-miterlimit="10" stroke-width="1"/>
    <path id="路径_9" data-name="路径 9" d="M23.722,8.117a1.188,1.188,0,0,1-1.186-1.186,1.271,1.271,0,0,1,.023-.238,2.3,2.3,0,0,1,.064-.221,1.681,1.681,0,0,1,.11-.206,1.756,1.756,0,0,1,.151-.182,1.205,1.205,0,0,1,1.067-.316.707.707,0,0,1,.222.063,1.017,1.017,0,0,1,.2.111,1.5,1.5,0,0,1,.182.142,1.756,1.756,0,0,1,.151.182,1.044,1.044,0,0,1,.1.206,1.26,1.26,0,0,1,.071.221,1.194,1.194,0,0,1-.325,1.076.982.982,0,0,1-.182.142,1.017,1.017,0,0,1-.2.111,1.028,1.028,0,0,1-.222.071,1.058,1.058,0,0,1-.229.024" fill="#fff"/>
    <path id="路径_10" data-name="路径 10" d="M23.722,8.117a1.188,1.188,0,0,1-1.186-1.186,1.271,1.271,0,0,1,.023-.238,2.3,2.3,0,0,1,.064-.221,1.681,1.681,0,0,1,.11-.206,1.756,1.756,0,0,1,.151-.182,1.205,1.205,0,0,1,1.067-.316.707.707,0,0,1,.222.063,1.017,1.017,0,0,1,.2.111,1.5,1.5,0,0,1,.182.142,1.756,1.756,0,0,1,.151.182,1.044,1.044,0,0,1,.1.206,1.26,1.26,0,0,1,.071.221,1.194,1.194,0,0,1-.325,1.076.982.982,0,0,1-.182.142,1.017,1.017,0,0,1-.2.111,1.028,1.028,0,0,1-.222.071A1.058,1.058,0,0,1,23.722,8.117Z" fill="none" stroke="#fff" stroke-miterlimit="10" stroke-width="1"/>
    <path id="路径_11" data-name="路径 11" d="M21.953,58.577V50.2h1.681v6.976h3.393v1.4Z" fill="#fff"/>
    <path id="路径_12" data-name="路径 12" d="M32.936,58.731a3.388,3.388,0,0,1-2.853-1.349,4.856,4.856,0,0,1-.9-3.029,4.334,4.334,0,0,1,1.371-3.5,3.6,3.6,0,0,1,2.377-.808,3.418,3.418,0,0,1,2.9,1.36,4.831,4.831,0,0,1,.852,2.952,4.5,4.5,0,0,1-1.3,3.482,3.489,3.489,0,0,1-2.443.9m0-1.448a1.772,1.772,0,0,0,1.681-1.128,4.048,4.048,0,0,0,.364-1.8,2.949,2.949,0,0,0-.962-2.532,1.806,1.806,0,0,0-1.083-.342,1.776,1.776,0,0,0-1.713,1.16,4.132,4.132,0,0,0-.321,1.714,3.135,3.135,0,0,0,.917,2.543,1.717,1.717,0,0,0,1.117.387" fill="#fff"/>
    <path id="路径_13" data-name="路径 13" d="M43.056,58.731a3.789,3.789,0,0,1-3.029-1.282,4.5,4.5,0,0,1-.995-3.03,4.352,4.352,0,0,1,1.36-3.4,3.866,3.866,0,0,1,2.664-.974,3.535,3.535,0,0,1,2.587,1.073l-.9,1.061a2.5,2.5,0,0,0-1.637-.7A2.091,2.091,0,0,0,41.2,52.54a3.437,3.437,0,0,0-.453,1.824q0,2.09,1.36,2.7a2.675,2.675,0,0,0,1.116.221,1.691,1.691,0,0,0,1.05-.31V55.315H42.791V53.944h2.985v3.781a3.666,3.666,0,0,1-2.1.962,4.457,4.457,0,0,1-.62.044" fill="#fff"/>
    <rect id="矩形_2" data-name="矩形 2" width="1.681" height="8.38" transform="translate(52.395 50.196)" fill="#fff"/>
    <path id="路径_14" data-name="路径 14" d="M57.253,58.577V50.2h1.714L61.4,54.663l.84,1.813h.056q-.222-2.189-.222-2.941V50.2h1.593v8.38h-1.7l-2.421-4.488L58.691,52.3h-.056q.023.222.067.708.143,1.492.143,2.211v3.361Z" fill="#fff"/>
    <circle id="椭圆_5" data-name="椭圆 5" cx="11" cy="11" r="11" transform="translate(31.666 23.012)" fill="none" stroke="#fff" stroke-miterlimit="10" stroke-width="2.268"/>
    <circle id="椭圆_6" data-name="椭圆 6" cx="4" cy="4" r="4" transform="translate(38.666 28.012)" fill="none" stroke="#fff" stroke-miterlimit="10" stroke-width="2.268"/>
    <path id="路径_15" data-name="路径 15" d="M34.909,42.539S36.6,36.646,42.6,36.646a8.253,8.253,0,0,1,7.82,5.1" fill="none" stroke="#fff" stroke-miterlimit="10" stroke-width="2.268"/>
  </g>
</svg>
